# The Great Editor v0.0.1
mtllib floor_1.mtl
o floor_1
v 0.4976113811882079 -0.37100304868002304 0
v 0.4976113811882079 -0.37100304868002304 -0.1
v 10.487746651805535 -0.3887004127257195 0
v 10.487746651805535 -0.3887004127257195 -0.1
v 10.52319484625356 -4.161607334926974 0
v 10.52319484625356 -4.161607334926974 -0.1
v 12.524761373186164 -4.143856504524645 0
v 12.524761373186164 -4.143856504524645 -0.1
v 12.524761373186164 -0.4241486071737459 0
v 12.524761373186164 -0.4241486071737459 -0.1
v 20.01737619273832 -0.45954333526513885 0
v 20.01737619273832 -0.45954333526513885 -0.1
v 20.070521751232043 -8.040751907759041 0
v 20.070521751232043 -8.040751907759041 -0.1
v 16.191377178399975 -8.164740388792184 0
v 16.191377178399975 -8.164740388792184 -0.1
v 16.22677190649137 -10.077713162783038 0
v 16.22677190649137 -10.077713162783038 -0.1
v 13.83554257241364 -10.077713162783038 0
v 13.83554257241364 -10.077713162783038 -0.1
v 13.83554257241364 -9.617207433098496 0
v 13.83554257241364 -9.617207433098496 -0.1
v 10.399206365220419 -9.617207433098496 0
v 10.399206365220419 -9.617207433098496 -0.1
v 10.363758170772392 -7.048790593137271 0
v 10.363758170772392 -7.048790593137271 -0.1
v 8.751907917341544 -7.0310932290915735 0
v 8.751907917341544 -7.0310932290915735 -0.1
v 8.805053475835267 -9.65260216118989 0
v 8.805053475835267 -9.65260216118989 -0.1
v 2.711760142095704 -9.65260216118989 0
v 2.711760142095704 -9.65260216118989 -0.1
v 2.6940627780500073 -2.5320062510937964 0
v 2.6940627780500073 -2.5320062510937964 -0.1
v 0.5153622115905379 -2.585151809587519 0
v 0.5153622115905379 -2.585151809587519 -0.1
v 16.074046214020246 -8.139280627699081 0
v 16.074046214020246 -8.139280627699081 -0.1
v 16.074046214020246 -10.03928062769908 0
v 16.074046214020246 -10.03928062769908 -0.1
v 13.974046214020245 -10.03928062769908 0
v 13.974046214020245 -10.03928062769908 -0.1
v 13.974046214020245 -8.139280627699081 0
v 13.974046214020245 -8.139280627699081 -0.1
v 13.974046214020245 -9.525763201884773 0
v 13.974046214020245 -9.525763201884773 -0.1
v 13.974046214020245 -9.643322500945676 0
v 13.974046214020245 -9.643322500945676 -0.1
vt 0.4976113811882079 -0.37100304868002304 0
vt 10.487746651805535 -0.3887004127257195 0
vt 10.52319484625356 -4.161607334926974 0
vt 12.524761373186164 -4.143856504524645 0
vt 12.524761373186164 -0.4241486071737459 0
vt 20.01737619273832 -0.45954333526513885 0
vt 20.070521751232043 -8.040751907759041 0
vt 16.191377178399975 -8.164740388792184 0
vt 16.22677190649137 -10.077713162783038 0
vt 13.83554257241364 -10.077713162783038 0
vt 13.83554257241364 -9.617207433098496 0
vt 10.399206365220419 -9.617207433098496 0
vt 10.363758170772392 -7.048790593137271 0
vt 8.751907917341544 -7.0310932290915735 0
vt 8.805053475835267 -9.65260216118989 0
vt 2.711760142095704 -9.65260216118989 0
vt 2.6940627780500073 -2.5320062510937964 0
vt 0.5153622115905379 -2.585151809587519 0
vt 16.074046214020246 -8.139280627699081 0
vt 16.074046214020246 -10.03928062769908 0
vt 13.974046214020245 -10.03928062769908 0
vt 13.974046214020245 -8.139280627699081 0
vt 13.974046214020245 -9.525763201884773 0
vt 13.974046214020245 -9.643322500945676 0
vn 0 0 1
vn 0 0 -1
usemtl floor_1
s off
f 1/1/1 35/18/1 33/17/1
f 34/17/2 36/18/2 2/1/2
f 1/1/1 33/17/1 3/2/1
f 4/2/2 34/17/2 2/1/2
f 3/2/1 33/17/1 5/3/1
f 6/3/2 34/17/2 4/2/2
f 9/5/1 7/4/1 11/6/1
f 12/6/2 8/4/2 10/5/2
f 11/6/1 7/4/1 37/19/1
f 38/19/2 8/4/2 12/6/2
f 11/6/1 37/19/1 15/8/1
f 16/8/2 38/19/2 12/6/2
f 11/6/1 15/8/1 13/7/1
f 14/7/2 16/8/2 12/6/2
f 19/10/1 17/9/1 39/20/1
f 40/20/2 18/9/2 20/10/2
f 19/10/1 39/20/1 41/21/1
f 42/21/2 40/20/2 20/10/2
f 19/10/1 41/21/1 21/11/1
f 22/11/2 42/21/2 20/10/2
f 31/16/1 29/15/1 27/14/1
f 28/14/2 30/15/2 32/16/2
f 31/16/1 27/14/1 33/17/1
f 34/17/2 28/14/2 32/16/2
f 33/17/1 27/14/1 5/3/1
f 6/3/2 28/14/2 34/17/2
f 5/3/1 27/14/1 25/13/1
f 26/13/2 28/14/2 6/3/2
f 5/3/1 25/13/1 7/4/1
f 8/4/2 26/13/2 6/3/2
f 7/4/1 25/13/1 43/22/1
f 44/22/2 26/13/2 8/4/2
f 7/4/1 43/22/1 37/19/1
f 38/19/2 44/22/2 8/4/2
f 43/22/1 21/11/1 45/23/1
f 46/23/2 22/11/2 44/22/2
f 21/11/1 47/24/1 45/23/1
f 46/23/2 48/24/2 22/11/2
f 37/19/1 39/20/1 15/8/1
f 16/8/2 40/20/2 38/19/2
f 15/8/1 39/20/1 17/9/1
f 18/9/2 40/20/2 16/8/2
f 21/11/1 41/21/1 47/24/1
f 48/24/2 42/21/2 22/11/2
f 21/11/1 43/22/1 23/12/1
f 24/12/2 44/22/2 22/11/2
f 23/12/1 43/22/1 25/13/1
f 26/13/2 44/22/2 24/12/2
