# The Great Editor v0.0.1
mtllib floor_1.mtl
o floor_1
v 0.5329875461540923 -0.3306818820938445 0
v 0.5329875461540923 -0.3306818820938445 -0.1
v 10.49084469834931 -0.3855512312935144 0
v 10.49084469834931 -0.3855512312935144 -0.1
v 10.512118550397497 -4.146424902200498 0
v 10.512118550397497 -4.146424902200498 -0.1
v 12.50729738101807 -4.136190307362821 0
v 12.50729738101807 -4.136190307362821 -0.1
v 12.521159173870014 -0.42847622706906735 0
v 12.521159173870014 -0.42847622706906735 -0.1
v 19.98948292318018 -0.4916786646658738 0
v 19.98948292318018 -0.4916786646658738 -0.1
v 20.01420513128648 -8.048640457988771 0
v 20.01420513128648 -8.048640457988771 -0.1
v 16.14710640961831 -8.157773204325808 0
v 16.14710640961831 -8.157773204325808 -0.1
v 16.175258163002688 -10.064709694899442 0
v 16.175258163002688 -10.064709694899442 -0.1
v 13.791739102948101 -10.055798585047487 0
v 13.791739102948101 -10.055798585047487 -0.1
v 13.79345521486016 -9.596777708912745 0
v 13.79345521486016 -9.596777708912745 -0.1
v 10.368199121738604 -9.58397192362308 0
v 10.368199121738604 -9.58397192362308 -0.1
v 10.3424366398106 -7.023704580077463 0
v 10.3424366398106 -7.023704580077463 -0.1
v 8.735849583060206 -7.000057588806891 0
v 8.735849583060206 -7.000057588806891 -0.1
v 8.779054513713614 -9.613311785138379 0
v 8.779054513713614 -9.613311785138379 -0.1
v 2.7054083801137288 -9.590604633848734 0
v 2.7054083801137288 -9.590604633848734 -0.1
v 2.7143035569783978 -2.492902405148906 0
v 2.7143035569783978 -2.492902405148906 -0.1
v 0.5424299360733517 -2.5377574970534074 0
v 0.5424299360733517 -2.5377574970534074 -0.1
v 16.074046214020246 -8.139280627699081 0
v 16.074046214020246 -8.139280627699081 -0.1
v 13.974046214020245 -10.03928062769908 0
v 13.974046214020245 -10.03928062769908 -0.1
v 13.974046214020245 -8.139280627699081 0
v 13.974046214020245 -8.139280627699081 -0.1
v 13.974046214020245 -9.48136426815716 0
v 13.974046214020245 -9.48136426815716 -0.1
v 13.974046214020245 -9.631817768381676 0
v 13.974046214020245 -9.631817768381676 -0.1
v 16.074046214020246 -10.03928062769908 0
v 16.074046214020246 -10.03928062769908 -0.1
vt 0.5329875461540923 -0.3306818820938445 0
vt 10.49084469834931 -0.3855512312935144 0
vt 10.512118550397497 -4.146424902200498 0
vt 12.50729738101807 -4.136190307362821 0
vt 12.521159173870014 -0.42847622706906735 0
vt 19.98948292318018 -0.4916786646658738 0
vt 20.01420513128648 -8.048640457988771 0
vt 16.14710640961831 -8.157773204325808 0
vt 16.175258163002688 -10.064709694899442 0
vt 13.791739102948101 -10.055798585047487 0
vt 13.79345521486016 -9.596777708912745 0
vt 10.368199121738604 -9.58397192362308 0
vt 10.3424366398106 -7.023704580077463 0
vt 8.735849583060206 -7.000057588806891 0
vt 8.779054513713614 -9.613311785138379 0
vt 2.7054083801137288 -9.590604633848734 0
vt 2.7143035569783978 -2.492902405148906 0
vt 0.5424299360733517 -2.5377574970534074 0
vt 16.074046214020246 -8.139280627699081 0
vt 13.974046214020245 -10.03928062769908 0
vt 13.974046214020245 -8.139280627699081 0
vt 13.974046214020245 -9.48136426815716 0
vt 13.974046214020245 -9.631817768381676 0
vt 16.074046214020246 -10.03928062769908 0
vn 0 0 1
vn 0 0 -1
usemtl floor_1
s off
f 1/1/1 35/18/1 33/17/1
f 34/17/2 36/18/2 2/1/2
f 1/1/1 33/17/1 3/2/1
f 4/2/2 34/17/2 2/1/2
f 3/2/1 33/17/1 5/3/1
f 6/3/2 34/17/2 4/2/2
f 9/5/1 7/4/1 11/6/1
f 12/6/2 8/4/2 10/5/2
f 11/6/1 7/4/1 37/19/1
f 38/19/2 8/4/2 12/6/2
f 11/6/1 37/19/1 15/8/1
f 16/8/2 38/19/2 12/6/2
f 11/6/1 15/8/1 13/7/1
f 14/7/2 16/8/2 12/6/2
f 19/10/1 17/9/1 39/20/1
f 40/20/2 18/9/2 20/10/2
f 19/10/1 39/20/1 21/11/1
f 22/11/2 40/20/2 20/10/2
f 31/16/1 29/15/1 27/14/1
f 28/14/2 30/15/2 32/16/2
f 31/16/1 27/14/1 33/17/1
f 34/17/2 28/14/2 32/16/2
f 33/17/1 27/14/1 5/3/1
f 6/3/2 28/14/2 34/17/2
f 5/3/1 27/14/1 25/13/1
f 26/13/2 28/14/2 6/3/2
f 5/3/1 25/13/1 7/4/1
f 8/4/2 26/13/2 6/3/2
f 7/4/1 25/13/1 41/21/1
f 42/21/2 26/13/2 8/4/2
f 7/4/1 41/21/1 37/19/1
f 38/19/2 42/21/2 8/4/2
f 41/21/1 21/11/1 43/22/1
f 44/22/2 22/11/2 42/21/2
f 21/11/1 45/23/1 43/22/1
f 44/22/2 46/23/2 22/11/2
f 37/19/1 47/24/1 15/8/1
f 16/8/2 48/24/2 38/19/2
f 15/8/1 47/24/1 17/9/1
f 18/9/2 48/24/2 16/8/2
f 17/9/1 47/24/1 39/20/1
f 40/20/2 48/24/2 18/9/2
f 21/11/1 39/20/1 45/23/1
f 46/23/2 40/20/2 22/11/2
f 21/11/1 41/21/1 23/12/1
f 24/12/2 42/21/2 22/11/2
f 23/12/1 41/21/1 25/13/1
f 26/13/2 42/21/2 24/12/2
