# The Great Editor v0.0.1
mtllib floor_1.mtl
o floor_1
v 0.26673899251104516 -0.2417961445652 0
v 0.26673899251104516 -0.2417961445652 -0.1
v 10.442346708332847 -0.40907230354086616 0
v 10.442346708332847 -0.40907230354086616 -0.1
v 10.422087805604276 -4.252654789210499 0
v 10.422087805604276 -4.252654789210499 -0.1
v 12.461132698586438 -4.264476766669214 0
v 12.461132698586438 -4.264476766669214 -0.1
v 12.51670407123585 -0.47561196930992494 0
v 12.51670407123585 -0.47561196930992494 -0.1
v 20.148092981253598 -0.6236022805721264 0
v 20.148092981253598 -0.6236022805721264 -0.1
v 20.08896553440253 -8.346554847319426 0
v 20.08896553440253 -8.346554847319426 -0.1
v 16.13584745853784 -8.4148952142143 0
v 16.13584745853784 -8.4148952142143 -0.1
v 16.14332097988766 -10.363962811825543 0
v 16.14332097988766 -10.363962811825543 -0.1
v 13.707633851671927 -10.328238529144938 0
v 13.707633851671927 -10.328238529144938 -0.1
v 13.714513675630608 -9.859171065695291 0
v 13.714513675630608 -9.859171065695291 -0.1
v 10.2142890218082 -9.80783318509058 0
v 10.2142890218082 -9.80783318509058 -0.1
v 10.216553187030538 -7.191134690666006 0
v 10.216553187030538 -7.191134690666006 -0.1
v 8.574999767909878 -7.1490277147825525 0
v 8.574999767909878 -7.1490277147825525 -0.1
v 8.589968815878164 -9.82006978437673 0
v 8.589968815878164 -9.82006978437673 -0.1
v 2.383388823768648 -9.729037723834404 0
v 2.383388823768648 -9.729037723834404 -0.1
v 2.471742097261199 -2.4757911272372644 0
v 2.471742097261199 -2.4757911272372644 -0.1
v 0.25174109724672233 -2.497375605604461 0
v 0.25174109724672233 -2.497375605604461 -0.1
v 16.02555459674882 -8.292301005168925 0
v 16.02555459674882 -8.292301005168925 -0.1
v 13.925554596748817 -9.892301005168926 0
v 13.925554596748817 -9.892301005168926 -0.1
v 13.925554596748817 -8.292301005168925 0
v 13.925554596748817 -8.292301005168925 -0.1
v 16.02555459674882 -9.892301005168926 0
v 16.02555459674882 -9.892301005168926 -0.1
v 16.141343542361323 -9.848254188209449 0
v 16.141343542361323 -9.848254188209449 -0.1
vt 0.26673899251104516 -0.2417961445652 0
vt 10.442346708332847 -0.40907230354086616 0
vt 10.422087805604276 -4.252654789210499 0
vt 12.461132698586438 -4.264476766669214 0
vt 12.51670407123585 -0.47561196930992494 0
vt 20.148092981253598 -0.6236022805721264 0
vt 20.08896553440253 -8.346554847319426 0
vt 16.13584745853784 -8.4148952142143 0
vt 16.14332097988766 -10.363962811825543 0
vt 13.707633851671927 -10.328238529144938 0
vt 13.714513675630608 -9.859171065695291 0
vt 10.2142890218082 -9.80783318509058 0
vt 10.216553187030538 -7.191134690666006 0
vt 8.574999767909878 -7.1490277147825525 0
vt 8.589968815878164 -9.82006978437673 0
vt 2.383388823768648 -9.729037723834404 0
vt 2.471742097261199 -2.4757911272372644 0
vt 0.25174109724672233 -2.497375605604461 0
vt 16.02555459674882 -8.292301005168925 0
vt 13.925554596748817 -9.892301005168926 0
vt 13.925554596748817 -8.292301005168925 0
vt 16.02555459674882 -9.892301005168926 0
vt 16.141343542361323 -9.848254188209449 0
vn 0 0 1
vn 0 0 -1
usemtl floor_1
s off
f 1/1/1 35/18/1 33/17/1
f 34/17/2 36/18/2 2/1/2
f 1/1/1 33/17/1 3/2/1
f 4/2/2 34/17/2 2/1/2
f 3/2/1 33/17/1 5/3/1
f 6/3/2 34/17/2 4/2/2
f 9/5/1 7/4/1 11/6/1
f 12/6/2 8/4/2 10/5/2
f 11/6/1 7/4/1 37/19/1
f 38/19/2 8/4/2 12/6/2
f 11/6/1 37/19/1 13/7/1
f 14/7/2 38/19/2 12/6/2
f 19/10/1 17/9/1 39/20/1
f 40/20/2 18/9/2 20/10/2
f 19/10/1 39/20/1 21/11/1
f 22/11/2 40/20/2 20/10/2
f 31/16/1 29/15/1 27/14/1
f 28/14/2 30/15/2 32/16/2
f 31/16/1 27/14/1 33/17/1
f 34/17/2 28/14/2 32/16/2
f 33/17/1 27/14/1 5/3/1
f 6/3/2 28/14/2 34/17/2
f 5/3/1 27/14/1 25/13/1
f 26/13/2 28/14/2 6/3/2
f 5/3/1 25/13/1 7/4/1
f 8/4/2 26/13/2 6/3/2
f 7/4/1 25/13/1 41/21/1
f 42/21/2 26/13/2 8/4/2
f 7/4/1 41/21/1 37/19/1
f 38/19/2 42/21/2 8/4/2
f 37/19/1 43/22/1 15/8/1
f 16/8/2 44/22/2 38/19/2
f 37/19/1 15/8/1 13/7/1
f 14/7/2 16/8/2 38/19/2
f 15/8/1 43/22/1 45/23/1
f 46/23/2 44/22/2 16/8/2
f 43/22/1 17/9/1 45/23/1
f 46/23/2 18/9/2 44/22/2
f 17/9/1 43/22/1 39/20/1
f 40/20/2 44/22/2 18/9/2
f 39/20/1 41/21/1 21/11/1
f 22/11/2 42/21/2 40/20/2
f 21/11/1 41/21/1 23/12/1
f 24/12/2 42/21/2 22/11/2
f 23/12/1 41/21/1 25/13/1
f 26/13/2 42/21/2 24/12/2
