# The Great Editor v0.0.1
mtllib floor_1.mtl
o floor_1
v 0.4751529537054161 -0.3632641672182785 0
v 0.4751529537054161 -0.3632641672182785 -0.1
v 10.491231740999504 -0.3888295782798711 0
v 10.491231740999504 -0.3888295782798711 -0.1
v 10.536853698396028 -4.228936165751187 0
v 10.536853698396028 -4.228936165751187 -0.1
v 12.52892336450498 -4.145233512380073 0
v 12.52892336450498 -4.145233512380073 -0.1
v 12.52892336450498 -0.4242895522000299 0
v 12.52892336450498 -0.4242895522000299 -0.1
v 20.024027987807084 -0.45969604199662895 0
v 20.024027987807084 -0.45969604199662895 -0.1
v 20.077191206625542 -8.04342385803735 0
v 20.077191206625542 -8.04342385803735 -0.1
v 16.196757589990128 -8.167453540572566 0
v 16.196757589990128 -8.167453540572566 -0.1
v 16.232164079786724 -10.081061997419265 0
v 16.232164079786724 -10.081061997419265 -0.1
v 13.840140137697459 -10.081061997419265 0
v 13.840140137697459 -10.081061997419265 -0.1
v 13.840140137697459 -9.62040324119856 0
v 13.840140137697459 -9.62040324119856 -0.1
v 10.402662032384447 -9.62040324119856 0
v 10.402662032384447 -9.62040324119856 -0.1
v 10.367202058464288 -7.051132913632062 0
v 10.367202058464288 -7.051132913632062 -0.1
v 8.75481618550648 -7.033429668733762 0
v 8.75481618550648 -7.033429668733762 -0.1
v 8.807979404324938 -9.65580973099516 0
v 8.807979404324938 -9.65580973099516 -0.1
v 2.7126612628303692 -9.65580973099516 0
v 2.7126612628303692 -9.65580973099516 -0.1
v 2.6949580179320693 -2.5328476394222634 0
v 2.6949580179320693 -2.5328476394222634 -0.1
v 0.515533466993078 -2.586010858240722 0
v 0.515533466993078 -2.586010858240722 -0.1
v 16.02555459674882 -9.892301005168926 0
v 16.02555459674882 -9.892301005168926 -0.1
v 13.925554596748817 -9.892301005168926 0
v 13.925554596748817 -9.892301005168926 -0.1
v 13.925554596748817 -8.292301005168925 0
v 13.925554596748817 -8.292301005168925 -0.1
v 16.02555459674882 -8.292301005168925 0
v 16.02555459674882 -8.292301005168925 -0.1
v 13.925554596748817 -9.63103005861098 0
v 13.925554596748817 -9.63103005861098 -0.1
v 13.925554596748817 -9.56849586336204 0
v 13.925554596748817 -9.56849586336204 -0.1
vt 0.4751529537054161 -0.3632641672182785 0
vt 10.491231740999504 -0.3888295782798711 0
vt 10.536853698396028 -4.228936165751187 0
vt 12.52892336450498 -4.145233512380073 0
vt 12.52892336450498 -0.4242895522000299 0
vt 20.024027987807084 -0.45969604199662895 0
vt 20.077191206625542 -8.04342385803735 0
vt 16.196757589990128 -8.167453540572566 0
vt 16.232164079786724 -10.081061997419265 0
vt 13.840140137697459 -10.081061997419265 0
vt 13.840140137697459 -9.62040324119856 0
vt 10.402662032384447 -9.62040324119856 0
vt 10.367202058464288 -7.051132913632062 0
vt 8.75481618550648 -7.033429668733762 0
vt 8.807979404324938 -9.65580973099516 0
vt 2.7126612628303692 -9.65580973099516 0
vt 2.6949580179320693 -2.5328476394222634 0
vt 0.515533466993078 -2.586010858240722 0
vt 16.02555459674882 -9.892301005168926 0
vt 13.925554596748817 -9.892301005168926 0
vt 13.925554596748817 -8.292301005168925 0
vt 16.02555459674882 -8.292301005168925 0
vt 13.925554596748817 -9.63103005861098 0
vt 13.925554596748817 -9.56849586336204 0
vn 0 0 1
vn 0 0 -1
usemtl floor_1
s off
f 1/1/1 35/18/1 33/17/1
f 34/17/2 36/18/2 2/1/2
f 1/1/1 33/17/1 3/2/1
f 4/2/2 34/17/2 2/1/2
f 3/2/1 33/17/1 5/3/1
f 6/3/2 34/17/2 4/2/2
f 9/5/1 7/4/1 11/6/1
f 12/6/2 8/4/2 10/5/2
f 11/6/1 7/4/1 15/8/1
f 16/8/2 8/4/2 12/6/2
f 11/6/1 15/8/1 13/7/1
f 14/7/2 16/8/2 12/6/2
f 19/10/1 17/9/1 37/19/1
f 38/19/2 18/9/2 20/10/2
f 19/10/1 37/19/1 39/20/1
f 40/20/2 38/19/2 20/10/2
f 19/10/1 39/20/1 21/11/1
f 22/11/2 40/20/2 20/10/2
f 31/16/1 29/15/1 27/14/1
f 28/14/2 30/15/2 32/16/2
f 31/16/1 27/14/1 33/17/1
f 34/17/2 28/14/2 32/16/2
f 33/17/1 27/14/1 5/3/1
f 6/3/2 28/14/2 34/17/2
f 5/3/1 27/14/1 25/13/1
f 26/13/2 28/14/2 6/3/2
f 5/3/1 25/13/1 7/4/1
f 8/4/2 26/13/2 6/3/2
f 7/4/1 25/13/1 41/21/1
f 42/21/2 26/13/2 8/4/2
f 7/4/1 41/21/1 15/8/1
f 16/8/2 42/21/2 8/4/2
f 15/8/1 41/21/1 43/22/1
f 44/22/2 42/21/2 16/8/2
f 15/8/1 43/22/1 37/19/1
f 38/19/2 44/22/2 16/8/2
f 15/8/1 37/19/1 17/9/1
f 18/9/2 38/19/2 16/8/2
f 21/11/1 45/23/1 47/24/1
f 48/24/2 46/23/2 22/11/2
f 21/11/1 39/20/1 45/23/1
f 46/23/2 40/20/2 22/11/2
f 41/21/1 21/11/1 47/24/1
f 48/24/2 22/11/2 42/21/2
f 21/11/1 41/21/1 23/12/1
f 24/12/2 42/21/2 22/11/2
f 23/12/1 41/21/1 25/13/1
f 26/13/2 42/21/2 24/12/2
